<svg width="8" height="4" viewBox="0 0 8 4" fill="none" xmlns="http://www.w3.org/2000/svg">
<path d="M4.44119 0.167395L7.82295 3.11044C7.87905 3.15877 7.92358 3.21628 7.95397 3.27965C7.98435 3.34301 8 3.41097 8 3.47962C8 3.54826 7.98435 3.61622 7.95397 3.67959C7.92358 3.74295 7.87905 3.80046 7.82295 3.8488C7.71081 3.94564 7.55911 4 7.40098 4C7.24285 4 7.09115 3.94564 6.97901 3.8488L3.98629 1.27494L1.02351 3.8488C0.911364 3.94564 0.759662 4 0.601535 4C0.443409 4 0.291708 3.94564 0.179563 3.8488C0.123008 3.80064 0.0780153 3.74321 0.0471921 3.67984C0.0163693 3.61647 0.000329475 3.54841 4.5409e-07 3.47962C0.000329469 3.41082 0.0163693 3.34277 0.0471921 3.27939C0.0780153 3.21602 0.123008 3.15859 0.179563 3.11044L3.56133 0.167395C3.61738 0.114615 3.6854 0.0724928 3.76112 0.0436828C3.83683 0.0148725 3.9186 -1.25211e-06 4.00126 -1.25572e-06C4.08392 -1.25933e-06 4.16568 0.0148725 4.2414 0.0436827C4.31711 0.0724928 4.38514 0.114615 4.44119 0.167395Z" fill="white"/>
</svg>
