<svg width="8" height="4" viewBox="0 0 8 4" fill="none" xmlns="http://www.w3.org/2000/svg">
<path d="M4.44119 3.83261L7.82295 0.889564C7.87905 0.841226 7.92358 0.783717 7.95397 0.720353C7.98435 0.65699 8 0.589027 8 0.520384C8 0.451742 7.98435 0.383778 7.95397 0.320415C7.92358 0.257051 7.87905 0.199542 7.82295 0.151204C7.71081 0.0543586 7.55911 -1.92721e-08 7.40098 -2.6184e-08C7.24285 -3.30959e-08 7.09115 0.0543586 6.97901 0.151204L3.98629 2.72506L1.02351 0.151204C0.911364 0.0543584 0.759662 -3.16485e-07 0.601535 -3.23397e-07C0.443409 -3.30309e-07 0.291708 0.0543583 0.179563 0.151204C0.123008 0.199361 0.0780153 0.256789 0.0471921 0.320161C0.0163693 0.383532 0.000329475 0.451588 4.5409e-07 0.520384C0.000329469 0.58918 0.0163693 0.657235 0.0471921 0.720607C0.0780153 0.783978 0.123008 0.841407 0.179563 0.889564L3.56133 3.83261C3.61738 3.88538 3.6854 3.92751 3.76112 3.95632C3.83683 3.98513 3.9186 4 4.00126 4C4.08392 4 4.16568 3.98513 4.2414 3.95632C4.31711 3.92751 4.38514 3.88538 4.44119 3.83261Z" fill="white"/>
</svg>
