<svg width="20" height="20" viewBox="0 0 20 20" fill="none" xmlns="http://www.w3.org/2000/svg">
<path d="M9.9798 20C4.48485 20 0 15.5152 0 9.9798C0 4.48485 4.48485 0 9.9798 0C15.4747 0 19.9596 4.48485 19.9596 9.9798C20 15.5152 15.5152 20 9.9798 20ZM9.9798 0.808081C4.92929 0.808081 0.808081 4.92929 0.808081 9.9798C0.808081 15.0303 4.92929 19.1515 9.9798 19.1515C15.0303 19.1515 19.1515 15.0303 19.1515 9.9798C19.1919 4.92929 15.0707 0.808081 9.9798 0.808081Z" fill="#14296C"/>
<path d="M10.8276 14.1426H9.29223C9.13061 14.1426 9.0498 14.2638 9.0498 14.385V15.88C9.0498 16.0416 9.17102 16.1224 9.29223 16.1224H10.8276C10.9892 16.1224 11.07 16.0012 11.07 15.88V14.385C11.1104 14.2638 10.9892 14.1426 10.8276 14.1426Z" fill="#14296C"/>
<path d="M12.3228 4.80869C11.7572 4.28344 10.9895 4.04102 10.141 4.04102C9.0905 4.04102 8.24202 4.36425 7.67636 4.97031C7.0703 5.61677 6.74707 6.50566 6.74707 7.67738C6.74707 7.839 6.86828 7.9198 6.98949 7.9198H8.12081C8.28242 7.9198 8.36323 7.79859 8.36323 7.67738C8.36323 6.26324 8.92889 5.57637 10.0602 5.57637C10.9895 5.57637 11.5147 6.10162 11.5147 6.99051C11.5147 7.55617 11.2723 8.08142 10.7067 8.64708C9.61576 9.81879 9.21172 10.9097 9.21172 12.7279C9.21172 12.8895 9.33293 12.9703 9.45414 12.9703H10.545C10.7067 12.9703 10.7875 12.8491 10.7875 12.7279C10.7875 11.4754 10.9491 10.7885 11.838 9.81879C12.6461 8.97031 13.1713 8.16223 13.1713 6.99051C13.2521 6.10162 12.9289 5.33394 12.3228 4.80869Z" fill="#14296C"/>
</svg>
