<svg width="10" height="6" viewBox="0 0 10 6" fill="none" xmlns="http://www.w3.org/2000/svg">
<path d="M5.55148 5.74891L9.77869 1.33435C9.84882 1.26184 9.90448 1.17557 9.94246 1.08053C9.98044 0.985484 10 0.883539 10 0.780576C10 0.677612 9.98044 0.575667 9.94246 0.480622C9.90448 0.385577 9.84882 0.299313 9.77869 0.226806C9.63851 0.0815379 9.44888 -2.40901e-08 9.25122 -3.273e-08C9.05357 -4.13699e-08 8.86394 0.0815379 8.72376 0.226806L4.98287 4.0876L1.27938 0.226805C1.1392 0.0815376 0.949577 -3.95607e-07 0.751919 -4.04246e-07C0.554261 -4.12886e-07 0.364633 0.0815375 0.224453 0.226805C0.153759 0.299041 0.0975182 0.385183 0.0589895 0.480241C0.0204608 0.575298 0.000410907 0.677381 -3.412e-08 0.780575C0.000410898 0.883769 0.0204608 0.985852 0.0589895 1.08091C0.0975181 1.17597 0.153759 1.26211 0.224453 1.33435L4.45166 5.74891C4.52172 5.82808 4.60675 5.89126 4.7014 5.93447C4.79604 5.97769 4.89825 6 5.00157 6C5.1049 6 5.2071 5.97769 5.30174 5.93447C5.39639 5.89126 5.48142 5.82808 5.55148 5.74891V5.74891Z" fill="#575757"/>
</svg>
