<svg width="18" height="18" viewBox="0 0 18 18" fill="none" xmlns="http://www.w3.org/2000/svg">
<path d="M3.53061 14.4701C3.15454 14.4701 2.83272 14.3363 2.56514 14.0687C2.29756 13.8011 2.16354 13.4791 2.16309 13.1026V4.89743C2.16309 4.52136 2.2971 4.19954 2.56514 3.93196C2.83317 3.66438 3.15499 3.53036 3.53061 3.52991H7.06907C7.2514 3.52991 7.42531 3.5641 7.59078 3.63247C7.75625 3.70085 7.90143 3.79771 8.02633 3.92307L9.00069 4.89743H14.4708C14.8468 4.89743 15.1689 5.03145 15.4369 5.29948C15.705 5.56751 15.8388 5.88934 15.8383 6.26495V13.1026C15.8383 13.4786 15.7045 13.8007 15.4369 14.0687C15.1694 14.3367 14.8473 14.4705 14.4708 14.4701H3.53061Z" fill="white"/>
</svg>
