<svg width="18" height="18" viewBox="0 0 18 18" fill="none" xmlns="http://www.w3.org/2000/svg">
<path d="M9.00014 12.75L7.87514 13.875C7.37781 14.3722 6.70337 14.6515 6.00014 14.6515C5.29691 14.6515 4.62246 14.3722 4.12514 13.875C3.62794 13.3777 3.34863 12.7033 3.34863 12C3.34863 11.2968 3.62794 10.6223 4.12514 10.125L6.37514 7.87502C6.87246 7.37782 7.54691 7.09851 8.25014 7.09851C8.95337 7.09851 9.62781 7.37782 10.1251 7.87502" stroke="#2B2B2B" stroke-width="1.5" stroke-linecap="round"/>
<path d="M9 5.25002L10.125 4.12502C10.6223 3.62782 11.2968 3.34851 12 3.34851C12.7032 3.34851 13.3777 3.62782 13.875 4.12502C14.3722 4.62234 14.6515 5.29678 14.6515 6.00002C14.6515 6.70325 14.3722 7.37769 13.875 7.87502L11.625 10.125C11.1277 10.6222 10.4532 10.9015 9.75 10.9015C9.04677 10.9015 8.37233 10.6222 7.875 10.125" stroke="#2B2B2B" stroke-width="1.5" stroke-linecap="round"/>
</svg>
