<svg width="18" height="18" viewBox="0 0 18 18" fill="none" xmlns="http://www.w3.org/2000/svg">
<path d="M7.5 9.75C7.89782 9.75 8.27936 9.90804 8.56066 10.1893C8.84196 10.4706 9 10.8522 9 11.25C9 12.0825 8.3325 12.75 7.5 12.75C6.6675 12.75 6 12.0825 6 11.25C6 10.4175 6.675 9.75 7.5 9.75ZM13.5 0.75C11.43 0.75 9.75 2.43 9.75 4.5V6H3C2.175 6 1.5 6.675 1.5 7.5V15C1.5 15.825 2.175 16.5 3 16.5H12C12.825 16.5 13.5 15.825 13.5 15V7.5C13.5 6.675 12.825 6 12 6H11.25V4.5C11.25 3.255 12.255 2.25 13.5 2.25C14.745 2.25 15.75 3.255 15.75 4.5V6H17.25V4.5C17.25 2.43 15.57 0.75 13.5 0.75ZM12 7.5V15H3V7.5H12Z" fill="#3F7E9C"/>
</svg>
