<svg width="18" height="18" viewBox="0 0 18 18" fill="none" xmlns="http://www.w3.org/2000/svg">
<path d="M13.5002 6H12.7502V4.5C12.7502 2.43 11.0702 0.75 9.00024 0.75C6.93024 0.75 5.25024 2.43 5.25024 4.5V6H4.50024C3.67524 6 3.00024 6.675 3.00024 7.5V15C3.00024 15.825 3.67524 16.5 4.50024 16.5H13.5002C14.3252 16.5 15.0002 15.825 15.0002 15V7.5C15.0002 6.675 14.3252 6 13.5002 6ZM6.75024 4.5C6.75024 3.255 7.75524 2.25 9.00024 2.25C10.2452 2.25 11.2502 3.255 11.2502 4.5V6H6.75024V4.5ZM13.5002 15H4.50024V7.5H13.5002V15ZM9.00024 12.75C9.82524 12.75 10.5002 12.075 10.5002 11.25C10.5002 10.425 9.82524 9.75 9.00024 9.75C8.17524 9.75 7.50024 10.425 7.50024 11.25C7.50024 12.075 8.17524 12.75 9.00024 12.75Z" fill="#A6463B"/>
</svg>
