<svg width="17" height="20" viewBox="0 0 17 20" fill="none" xmlns="http://www.w3.org/2000/svg">
<path d="M16.2866 5.01563C16.423 5.14955 16.5002 5.33036 16.5002 5.52009V19.2857C16.5002 19.6808 16.1752 20 15.773 20H1.22752C0.825244 20 0.500244 19.6808 0.500244 19.2857V0.714286C0.500244 0.319196 0.825244 0 1.22752 0H10.8798C11.073 0 11.2593 0.0758929 11.3957 0.209821L16.2866 5.01563ZM14.823 5.84821L10.5457 1.64732V5.84821H14.823ZM11.2552 12.796C10.9102 12.7848 10.5434 12.8109 10.1268 12.8621C9.57456 12.5275 9.20274 12.0679 8.93865 11.3926L8.96297 11.2949L8.99115 11.1792C9.08888 10.7746 9.14138 10.4792 9.15706 10.1815C9.16888 9.9567 9.15615 9.74933 9.11547 9.55714C9.04047 9.14219 8.74161 8.89955 8.36502 8.8846C8.01388 8.87054 7.69115 9.06317 7.60865 9.36161C7.47433 9.8442 7.55297 10.4792 7.83774 11.5623C7.47502 12.4116 6.9957 13.4074 6.67411 13.9627C6.24479 14.1801 5.91047 14.3779 5.62956 14.5971C5.25911 14.8866 5.02774 15.1842 4.96411 15.4967C4.9332 15.6415 4.97979 15.8308 5.08593 15.9859C5.20638 16.1618 5.38774 16.2761 5.60524 16.2926C6.15411 16.3344 6.82865 15.7786 7.57343 14.5234C7.6482 14.4989 7.72729 14.473 7.82388 14.4408L8.09434 14.3511C8.26547 14.2944 8.38956 14.2538 8.51229 14.2147C9.04411 14.0446 9.44638 13.9373 9.81229 13.8761C10.4482 14.2105 11.1832 14.4297 11.6782 14.4297C12.0868 14.4297 12.363 14.2217 12.4627 13.8942C12.5502 13.6067 12.4809 13.2732 12.2927 13.0888C12.0982 12.9011 11.7405 12.8114 11.2552 12.796ZM5.61911 15.6625V15.6545L5.62206 15.6469C5.65534 15.5625 5.69802 15.4819 5.74933 15.4067C5.84661 15.2598 5.98047 15.1054 6.14638 14.9408C6.23547 14.8527 6.3282 14.7667 6.43706 14.6703C6.46138 14.6489 6.61684 14.5129 6.64593 14.4862L6.89979 14.254L6.71524 14.5426C6.43524 14.981 6.18206 15.2967 5.96524 15.5025C5.88547 15.5783 5.81524 15.6342 5.75843 15.6701C5.73967 15.6824 5.71982 15.693 5.69911 15.7018C5.68979 15.7056 5.68161 15.7078 5.67343 15.7085C5.66479 15.7096 5.65601 15.7084 5.64797 15.7051C5.63942 15.7016 5.63211 15.6957 5.62698 15.6881C5.62184 15.6805 5.6191 15.6716 5.61911 15.6625ZM8.48138 10.7902L8.43002 10.8795L8.3982 10.7817C8.32774 10.5623 8.27593 10.2317 8.26161 9.93348C8.24524 9.5942 8.27274 9.39063 8.38184 9.39063C8.53502 9.39063 8.60524 9.6317 8.6107 9.99442C8.6157 10.3132 8.56479 10.6449 8.48138 10.7902ZM8.34933 12.0951L8.38411 12.0047L8.43161 12.0895C8.69729 12.5636 9.04206 12.9592 9.42115 13.2348L9.50297 13.2942L9.4032 13.3143C9.03206 13.3897 8.68638 13.5031 8.21365 13.6904C8.26297 13.6708 7.72229 13.8882 7.58547 13.9397L7.46615 13.9846L7.52979 13.8757C7.81047 13.3958 8.07002 12.8194 8.34933 12.0951ZM11.9316 13.7973C11.753 13.8665 11.3684 13.8047 10.6914 13.5208L10.5196 13.4489L10.7059 13.4355C11.2355 13.3969 11.6105 13.4254 11.8291 13.504C11.9223 13.5375 11.9843 13.5797 12.0118 13.6279C12.0263 13.6507 12.0312 13.6782 12.0254 13.7045C12.0196 13.7308 12.0037 13.7538 11.9809 13.7688C11.9665 13.7813 11.9497 13.7909 11.9316 13.7973Z" fill="#4A2E26"/>
</svg>
