<svg width="20" height="20" viewBox="0 0 20 20" fill="none" xmlns="http://www.w3.org/2000/svg">
<path d="M10.0007 12.9791C9.88954 12.9791 9.78537 12.9619 9.68815 12.9275C9.59093 12.893 9.50065 12.8339 9.41732 12.75L6.41732 9.74998C6.25065 9.58332 6.17065 9.38887 6.17732 9.16665C6.18398 8.94443 6.26398 8.74998 6.41732 8.58332C6.58398 8.41665 6.78204 8.32998 7.01148 8.32332C7.24093 8.31665 7.43871 8.39637 7.60482 8.56248L9.16732 10.125V4.16665C9.16732 3.93054 9.24732 3.73276 9.40732 3.57332C9.56732 3.41387 9.7651 3.33387 10.0007 3.33332C10.2362 3.33276 10.4343 3.41276 10.5948 3.57332C10.7554 3.73387 10.8351 3.93165 10.834 4.16665V10.125L12.3965 8.56248C12.5632 8.39582 12.7612 8.31582 12.9907 8.32248C13.2201 8.32915 13.4179 8.41609 13.584 8.58332C13.7368 8.74998 13.8168 8.94443 13.824 9.16665C13.8312 9.38887 13.7512 9.58332 13.584 9.74998L10.584 12.75C10.5007 12.8333 10.4104 12.8925 10.3132 12.9275C10.2159 12.9625 10.1118 12.9797 10.0007 12.9791ZM5.00065 16.6666C4.54232 16.6666 4.1501 16.5036 3.82398 16.1775C3.49787 15.8514 3.33454 15.4589 3.33398 15V13.3333C3.33398 13.0972 3.41398 12.8994 3.57398 12.74C3.73398 12.5805 3.93176 12.5005 4.16732 12.5C4.40287 12.4994 4.60093 12.5794 4.76148 12.74C4.92204 12.9005 5.00176 13.0983 5.00065 13.3333V15H15.0007V13.3333C15.0007 13.0972 15.0807 12.8994 15.2407 12.74C15.4007 12.5805 15.5984 12.5005 15.834 12.5C16.0695 12.4994 16.2676 12.5794 16.4282 12.74C16.5887 12.9005 16.6684 13.0983 16.6673 13.3333V15C16.6673 15.4583 16.5043 15.8508 16.1782 16.1775C15.852 16.5041 15.4595 16.6672 15.0007 16.6666H5.00065Z" fill="white"/>
</svg>
