<svg width="20" height="20" viewBox="0 0 20 20" fill="none" xmlns="http://www.w3.org/2000/svg">
<path d="M15.0003 10.8316H10.8337V14.9983C10.8337 15.2193 10.7459 15.4313 10.5896 15.5876C10.4333 15.7438 10.2213 15.8316 10.0003 15.8316C9.77931 15.8316 9.56735 15.7438 9.41107 15.5876C9.25479 15.4313 9.16699 15.2193 9.16699 14.9983V10.8316H5.00033C4.77931 10.8316 4.56735 10.7438 4.41107 10.5876C4.25479 10.4313 4.16699 10.2193 4.16699 9.99831C4.16699 9.7773 4.25479 9.56534 4.41107 9.40906C4.56735 9.25278 4.77931 9.16498 5.00033 9.16498H9.16699V4.99831C9.16699 4.7773 9.25479 4.56534 9.41107 4.40906C9.56735 4.25278 9.77931 4.16498 10.0003 4.16498C10.2213 4.16498 10.4333 4.25278 10.5896 4.40906C10.7459 4.56534 10.8337 4.7773 10.8337 4.99831V9.16498H15.0003C15.2213 9.16498 15.4333 9.25278 15.5896 9.40906C15.7459 9.56534 15.8337 9.7773 15.8337 9.99831C15.8337 10.2193 15.7459 10.4313 15.5896 10.5876C15.4333 10.7438 15.2213 10.8316 15.0003 10.8316Z" fill="#2B2B2B"/>
</svg>
