<svg width="18" height="18" viewBox="0 0 18 18" fill="none" xmlns="http://www.w3.org/2000/svg">
<path d="M13.4446 5.29621H4.55574V2.33325H13.4446V5.29621ZM13.4446 9.37029C13.6545 9.37029 13.8306 9.29918 13.9728 9.15696C14.115 9.01473 14.1859 8.83893 14.1854 8.62955C14.1849 8.42017 14.1138 8.24436 13.972 8.10214C13.8303 7.95992 13.6545 7.88881 13.4446 7.88881C13.2347 7.88881 13.0589 7.95992 12.9172 8.10214C12.7755 8.24436 12.7044 8.42017 12.7039 8.62955C12.7034 8.83893 12.7745 9.01498 12.9172 9.1577C13.0599 9.30041 13.2357 9.37128 13.4446 9.37029ZM11.9631 14.1851V11.2221H6.03722V14.1851H11.9631ZM13.4446 15.6666H4.55574V12.7036H1.59277V8.25918C1.59277 7.62955 1.80882 7.10189 2.24092 6.67621C2.67302 6.25054 3.19771 6.03745 3.815 6.03696H14.1854C14.815 6.03696 15.3429 6.25004 15.7691 6.67621C16.1952 7.10239 16.4081 7.63004 16.4076 8.25918V12.7036H13.4446V15.6666Z" fill="white"/>
</svg>
