<svg width="20" height="20" viewBox="0 0 20 20" fill="none" xmlns="http://www.w3.org/2000/svg">
<path d="M7.50045 13.475L4.60878 10.5833C4.45297 10.4275 4.24164 10.34 4.02128 10.34C3.80092 10.34 3.58959 10.4275 3.43378 10.5833C3.27797 10.7392 3.19043 10.9505 3.19043 11.1708C3.19043 11.2799 3.21192 11.388 3.25367 11.4888C3.29543 11.5896 3.35663 11.6812 3.43378 11.7583L6.91711 15.2417C7.24211 15.5667 7.76711 15.5667 8.09211 15.2417L16.9088 6.425C17.0646 6.26919 17.1521 6.05786 17.1521 5.8375C17.1521 5.61715 17.0646 5.40582 16.9088 5.25C16.753 5.09419 16.5416 5.00665 16.3213 5.00665C16.1009 5.00665 15.8896 5.09419 15.7338 5.25L7.50045 13.475Z" fill="#4A2E26"/>
</svg>
