<svg width="18" height="18" viewBox="0 0 18 18" fill="none" xmlns="http://www.w3.org/2000/svg">
<path fill-rule="evenodd" clip-rule="evenodd" d="M9.64213 1.00419C9.46399 0.989208 9.28478 1.0145 9.11741 1.07826C8.95004 1.14201 8.79865 1.24265 8.67413 1.37292L1.51458 8.39174C1.18508 8.72673 1 9.18089 1 9.65442C1 10.128 1.18508 10.5821 1.51458 10.9171L6.98768 16.4766C7.151 16.6425 7.3449 16.7742 7.55831 16.864C7.77171 16.9538 8.00045 17 8.23144 17C8.46244 17 8.69117 16.9538 8.90458 16.864C9.11798 16.7742 9.31188 16.6425 9.4752 16.4766L16.6334 9.45776C16.7675 9.32532 16.8696 9.16307 16.9316 8.98379C16.9936 8.8045 17.0138 8.61304 16.9907 8.42447L16.1648 2.97931C16.1398 2.68826 16.0147 2.41544 15.8115 2.20873C15.6082 2.00201 15.3398 1.8746 15.0533 1.84884L9.69278 1.00991L9.64213 1.00419ZM11.3727 8.14578C10.9995 8.14578 10.6417 7.99521 10.3778 7.72719C10.114 7.45916 9.96573 7.09565 9.96573 6.71661C9.96573 6.33757 10.114 5.97405 10.3778 5.70603C10.6417 5.438 10.9995 5.28743 11.3727 5.28743C11.7458 5.28743 12.1037 5.438 12.3676 5.70603C12.6314 5.97405 12.7797 6.33757 12.7797 6.71661C12.7797 7.09565 12.6314 7.45916 12.3676 7.72719C12.1037 7.99521 11.7458 8.14578 11.3727 8.14578Z" fill="#4A2E26"/>
</svg>
