<svg width="20" height="20" viewBox="0 0 20 20" fill="none" xmlns="http://www.w3.org/2000/svg">
<path d="M15.8327 2.70833H5.62435C5.08862 2.69261 4.56852 2.88991 4.178 3.25699C3.78749 3.62407 3.55843 4.13099 3.54102 4.66666V15C3.56276 15.6285 3.8329 16.2228 4.2922 16.6524C4.7515 17.082 5.36244 17.3119 5.99102 17.2917H15.8327C15.9978 17.2895 16.1555 17.223 16.2722 17.1062C16.389 16.9895 16.4555 16.8318 16.4577 16.6667V3.33333C16.4555 3.16824 16.389 3.01052 16.2722 2.89378C16.1555 2.77703 15.9978 2.71049 15.8327 2.70833ZM15.2077 16.0417H5.99102C5.69384 16.0623 5.40061 15.9642 5.17565 15.7689C4.95069 15.5737 4.81237 15.2971 4.79102 15C4.81237 14.7029 4.95069 14.4263 5.17565 14.2311C5.40061 14.0358 5.69384 13.9377 5.99102 13.9583H15.2077V16.0417ZM15.2077 12.7083H5.99102C5.57148 12.7088 5.15881 12.8148 4.79102 13.0167V4.66666C4.8101 4.46324 4.90792 4.27532 5.0636 4.14299C5.21928 4.01066 5.4205 3.9444 5.62435 3.95833H15.2077V12.7083Z" fill="#1B1B1B"/>
<path d="M7.29102 7.29169H12.7077C12.8734 7.29169 13.0324 7.22584 13.1496 7.10863C13.2668 6.99142 13.3327 6.83245 13.3327 6.66669C13.3327 6.50093 13.2668 6.34196 13.1496 6.22475C13.0324 6.10753 12.8734 6.04169 12.7077 6.04169H7.29102C7.12526 6.04169 6.96628 6.10753 6.84907 6.22475C6.73186 6.34196 6.66602 6.50093 6.66602 6.66669C6.66602 6.83245 6.73186 6.99142 6.84907 7.10863C6.96628 7.22584 7.12526 7.29169 7.29102 7.29169ZM7.29102 10.2084H12.7077C12.8734 10.2084 13.0324 10.1425 13.1496 10.0253C13.2668 9.90808 13.3327 9.74911 13.3327 9.58335C13.3327 9.41759 13.2668 9.25862 13.1496 9.14141C13.0324 9.0242 12.8734 8.95835 12.7077 8.95835H7.29102C7.12526 8.95835 6.96628 9.0242 6.84907 9.14141C6.73186 9.25862 6.66602 9.41759 6.66602 9.58335C6.66602 9.74911 6.73186 9.90808 6.84907 10.0253C6.96628 10.1425 7.12526 10.2084 7.29102 10.2084Z" fill="#1B1B1B"/>
</svg>
