<svg width="20" height="20" viewBox="0 0 20 20" fill="none" xmlns="http://www.w3.org/2000/svg">
<path d="M0.768879 0.769207C1.1937 0.344386 1.88247 0.344386 2.30729 0.769207L19.2298 17.6918C19.6547 18.1166 19.6547 18.8054 19.2298 19.2302V19.2302C18.805 19.655 18.1163 19.655 17.6914 19.2302L0.76888 2.30762C0.344059 1.8828 0.344058 1.19403 0.768879 0.769207V0.769207Z" fill="#371B1B"/>
<path d="M19.2301 0.769207C18.8053 0.344386 18.1166 0.344386 17.6917 0.769207L0.769177 17.6918C0.344356 18.1166 0.344354 18.8054 0.769176 19.2302V19.2302C1.194 19.655 1.88277 19.655 2.30759 19.2302L19.2301 2.30762C19.655 1.8828 19.655 1.19403 19.2301 0.769207V0.769207Z" fill="#371B1B"/>
</svg>
