<svg width="25" height="25" viewBox="0 0 25 25" fill="none" xmlns="http://www.w3.org/2000/svg">
<path fill-rule="evenodd" clip-rule="evenodd" d="M0 12.5C0 19.3926 5.59337 25 12.4686 25C19.1856 25 24.679 19.6478 24.9284 12.974C24.9747 12.8468 25 12.7095 25 12.5663C25 12.4279 24.9764 12.295 24.933 12.1715C24.7586 5.43016 19.2343 0 12.4686 0C8.17109 0 4.37442 2.19091 2.13156 5.51711C2.09185 5.56746 2.05586 5.62154 2.02415 5.67911C0.744507 7.64175 0 9.98535 0 12.5ZM2.42866 11.3789C2.57475 10.0548 2.97649 8.80688 3.58314 7.68595C4.36704 7.9266 5.60114 8.25222 7.20126 8.50516C7.13372 9.38618 7.09514 10.3441 7.09772 11.3789H2.42866ZM5.05606 5.62694C5.69041 5.79083 6.50462 5.972 7.47324 6.12714C7.63988 5.04864 7.84353 4.13843 8.04475 3.39673C6.91449 3.95096 5.90203 4.71064 5.05606 5.62694ZM9.48212 11.3789C9.48115 10.4461 9.51542 9.58229 9.57433 8.78797C10.4104 8.85604 11.3093 8.89667 12.2638 8.89667V8.89832C13.2408 8.89832 14.276 8.85567 15.3621 8.75635C15.4224 9.55937 15.4576 10.4337 15.4566 11.3789H9.48212ZM9.84565 6.40958C11.3826 6.53134 13.1492 6.55527 15.0895 6.38608C14.7835 4.44609 14.3593 3.15033 14.114 2.509C13.5784 2.42072 13.0288 2.3748 12.4686 2.3748V2.37315C11.9096 2.37315 11.361 2.4189 10.8264 2.50688C10.5802 3.14878 10.1525 4.45317 9.84565 6.40958ZM17.8395 11.3789C17.8421 10.3252 17.8021 9.35116 17.7323 8.45689C18.8944 8.26941 20.1026 8.01445 21.3494 7.67772C21.9587 8.80069 22.3621 10.0515 22.5086 11.3789H17.8395ZM17.4584 6.09062C18.2389 5.96382 19.041 5.80418 19.8616 5.60658C19.0198 4.7001 18.0144 3.94816 16.8931 3.39839C17.0919 4.13146 17.293 5.02894 17.4584 6.09062ZM9.55778 13.7537H15.3809C15.334 14.5138 15.264 15.3103 15.1666 16.1432C13.1893 15.9831 11.3719 16.0087 9.7706 16.1319C9.67396 15.3031 9.60437 14.5103 9.55778 13.7537ZM7.40972 16.3978C7.30077 15.4752 7.22348 14.5938 7.17308 13.7537H2.44418C2.59813 14.9984 2.97825 16.1738 3.54189 17.2371C4.35479 16.9957 5.68274 16.6554 7.40972 16.3978ZM4.99713 19.3087C5.70176 19.1318 6.63189 18.9316 7.74691 18.7662C7.90494 19.7178 8.09586 20.7073 8.32394 21.7349C7.05413 21.1599 5.9233 20.3292 4.99713 19.3087ZM10.1084 18.5062C11.5205 18.4037 13.1102 18.3817 14.8296 18.5089C14.6182 19.7715 14.3456 21.1055 14.0004 22.5107C13.5008 22.5872 12.9892 22.6269 12.4686 22.6269C11.9483 22.6269 11.4371 22.5872 10.9377 22.5108C10.5924 21.1046 10.3197 19.7697 10.1084 18.5062ZM17.189 18.7721C17.0312 19.7219 16.8405 20.7096 16.6128 21.7351C17.8824 21.1603 19.013 20.3299 19.9391 19.3098C19.0002 19.0822 18.0817 18.9056 17.189 18.7721ZM21.3971 17.2338C21.9598 16.1713 22.3393 14.9971 22.493 13.7537H17.764C17.7133 14.5996 17.6352 15.4872 17.5251 16.4167C18.7707 16.6051 20.0653 16.8712 21.3971 17.2338Z" fill="#AAAAAA"/>
</svg>
