<svg width="21" height="24" viewBox="0 0 21 24" fill="none" xmlns="http://www.w3.org/2000/svg">
<path fill-rule="evenodd" clip-rule="evenodd" d="M10.5 15.5541C9.35622 15.5541 8.2697 15.3024 7.29218 14.8512C4.32259 16.3418 2.41314 19.435 2.41314 22.7841C2.41314 23.4545 1.87325 23.9981 1.20739 23.9981H1.20575C0.539888 23.9981 0 23.4545 0 22.7841C0 18.9566 1.95716 15.39 5.09264 13.3249C3.66386 11.9128 2.77631 9.94724 2.77631 7.77706C2.77631 3.48905 6.2414 0 10.5 0C14.7585 0 18.2236 3.48905 18.2236 7.77706C18.2236 9.9473 17.336 11.9129 15.9072 13.3251C19.0422 15.3892 21 18.9554 21 22.7838C21 23.4542 20.4601 23.9979 19.7943 23.9979L19.7926 23.9995C19.1268 23.9995 18.5869 23.4559 18.5869 22.7854C18.5869 19.4368 16.6779 16.3423 13.7073 14.8514C12.7299 15.3025 11.6435 15.5541 10.5 15.5541ZM10.5 2.42982C7.57149 2.42982 5.18944 4.82833 5.18944 7.77706C5.18944 10.7258 7.57149 13.1243 10.5 13.1243C13.4285 13.1243 15.8105 10.7258 15.8105 7.77706C15.8105 4.82833 13.4285 2.42982 10.5 2.42982Z" fill="#AAAAAA"/>
</svg>
