<svg width="22" height="22" viewBox="0 0 22 22" fill="none" xmlns="http://www.w3.org/2000/svg">
<path d="M19.6961 18.3269L16.3669 15.0221C17.6592 13.4096 18.285 11.3628 18.1157 9.30268C17.9464 7.24256 16.9948 5.32565 15.4565 3.94612C13.9183 2.56659 11.9104 1.8293 9.84564 1.88584C7.7809 1.94238 5.81628 2.78846 4.35574 4.25011C2.8952 5.71176 2.04976 7.67788 1.99326 9.74419C1.93676 11.8105 2.6735 13.8199 4.05198 15.3593C5.43046 16.8987 7.34591 17.8511 9.40447 18.0205C11.463 18.19 13.5082 17.5637 15.1195 16.2704L18.4219 19.5752C18.5053 19.6594 18.6045 19.7262 18.7139 19.7718C18.8232 19.8174 18.9405 19.8409 19.059 19.8409C19.1775 19.8409 19.2947 19.8174 19.4041 19.7718C19.5135 19.7262 19.6127 19.6594 19.6961 19.5752C19.8579 19.4078 19.9483 19.184 19.9483 18.9511C19.9483 18.7182 19.8579 18.4944 19.6961 18.3269ZM10.0853 16.2704C8.84293 16.2704 7.62845 15.9017 6.59545 15.2109C5.56245 14.5202 4.75732 13.5384 4.28188 12.3897C3.80645 11.241 3.68205 9.97706 3.92443 8.75763C4.1668 7.5382 4.76506 6.41808 5.64356 5.53891C6.52205 4.65975 7.64132 4.06103 8.85983 3.81847C10.0783 3.57591 11.3414 3.7004 12.4892 4.1762C13.637 4.652 14.618 5.45774 15.3083 6.49153C15.9985 7.52531 16.3669 8.74071 16.3669 9.98404C16.3669 11.6513 15.7051 13.2502 14.5271 14.4292C13.349 15.6081 11.7513 16.2704 10.0853 16.2704Z" fill="white"/>
</svg>
