<svg width="7" height="4" viewBox="0 0 7 4" fill="none" xmlns="http://www.w3.org/2000/svg">
<path d="M0.196422 3.81379C0.320837 3.93306 0.489138 4 0.664567 4C0.839995 4 1.0083 3.93306 1.13271 3.81379L3.5166 1.54695L5.86729 3.81379C5.9917 3.93306 6.16001 4 6.33543 4C6.51086 4 6.67916 3.93306 6.80358 3.81379C6.86582 3.75426 6.91522 3.68344 6.94893 3.60541C6.98264 3.52737 7 3.44368 7 3.35914C7 3.27461 6.98264 3.19091 6.94893 3.11288C6.91522 3.03485 6.86582 2.96402 6.80358 2.9045L3.98807 0.189414C3.92634 0.129395 3.85289 0.0817571 3.77197 0.0492473C3.69106 0.0167377 3.60426 0 3.5166 0C3.42894 0 3.34215 0.0167377 3.26123 0.0492473C3.18031 0.0817571 3.10687 0.129395 3.04514 0.189414L0.196422 2.9045C0.134182 2.96402 0.0847821 3.03485 0.0510697 3.11288C0.0173578 3.19091 0 3.27461 0 3.35914C0 3.44368 0.0173578 3.52737 0.0510697 3.60541C0.0847821 3.68344 0.134182 3.75426 0.196422 3.81379Z" fill="black"/>
</svg>
