<svg width="20" height="20" viewBox="0 0 20 20" fill="none" xmlns="http://www.w3.org/2000/svg">
<path d="M19.543 4.498C20 6.28 20 10 20 10C20 10 20 13.72 19.543 15.502C19.289 16.487 18.546 17.262 17.605 17.524C15.896 18 10 18 10 18C10 18 4.107 18 2.395 17.524C1.45 17.258 0.708 16.484 0.457 15.502C2.98023e-08 13.72 0 10 0 10C0 10 2.98023e-08 6.28 0.457 4.498C0.711 3.513 1.454 2.738 2.395 2.476C4.107 2 10 2 10 2C10 2 15.896 2 17.605 2.476C18.55 2.742 19.292 3.516 19.543 4.498ZM8 13.5L14 10L8 6.5V13.5Z" fill="white"/>
</svg>
