<svg width="20" height="19" viewBox="0 0 20 19" fill="none" xmlns="http://www.w3.org/2000/svg">
<path d="M19.9399 5.58322C19.8912 4.57199 19.7221 3.88141 19.4749 3.27722C19.2239 2.64332 18.8303 2.06914 18.3215 1.59454C17.8221 1.11125 17.2176 0.737114 16.5503 0.498512C15.9142 0.263824 15.1874 0.103355 14.1229 0.0574036C13.0565 0.0110168 12.7158 0 10 0C7.28424 0 6.94351 0.0110168 5.87708 0.0571136C4.81262 0.103355 4.08585 0.263969 3.44971 0.498802C2.78244 0.737259 2.17804 1.11125 1.67847 1.59454C1.16974 2.06899 0.775909 2.64317 0.52475 3.27708C0.27771 3.88141 0.108795 4.57199 0.0604248 5.58308C0.0115967 6.59634 0 6.91988 0 9.49986C0 12.08 0.0115967 12.4037 0.0604248 13.4168C0.108948 14.4279 0.278015 15.1184 0.525207 15.7228C0.776215 16.3565 1.16989 16.9309 1.67862 17.4053C2.17804 17.8886 2.78259 18.2626 3.44986 18.5011C4.08585 18.736 4.81277 18.8965 5.87723 18.9427C6.94382 18.989 7.28439 18.9999 10.0002 18.9999C12.7159 18.9999 13.0566 18.989 14.1231 18.9427C15.1875 18.8965 15.9143 18.736 16.5504 18.5011C17.8937 18.0076 18.9555 16.9988 19.4749 15.7228C19.7223 15.1184 19.8912 14.4279 19.9399 13.4168C19.9884 12.4035 20 12.08 20 9.5C20 6.91988 19.9884 6.59634 19.9399 5.58322ZM18.1398 13.3389C18.0954 14.2652 17.9324 14.7682 17.7956 15.1029C17.4591 15.9315 16.7699 16.5863 15.8977 16.9059C15.5453 17.036 15.0159 17.1908 14.0408 17.233C12.9866 17.2788 12.6703 17.2883 10 17.2883C7.32956 17.2883 7.0134 17.2788 5.95901 17.233C4.98413 17.1908 4.45465 17.036 4.10217 16.9059C3.66791 16.7536 3.27499 16.5108 2.95242 16.1952C2.62024 15.8888 2.36465 15.5156 2.20428 15.1029C2.06741 14.7682 1.90445 14.2652 1.86005 13.3389C1.81198 12.3373 1.80176 12.0368 1.80176 9.50015C1.80176 6.96337 1.81198 6.66302 1.86005 5.66121C1.9046 4.73492 2.06741 4.23192 2.20428 3.89721C2.36465 3.48451 2.62039 3.11124 2.95242 2.8048C3.27499 2.48923 3.66791 2.24642 4.10233 2.09422C4.45465 1.96404 4.98413 1.80937 5.95917 1.76704C7.01355 1.72138 7.32986 1.71167 10 1.71167H9.99985C12.67 1.71167 12.9863 1.72138 14.0408 1.76719C15.0159 1.80937 15.5452 1.96419 15.8977 2.09422C16.3319 2.24657 16.7249 2.48937 17.0474 2.8048C17.3796 3.11124 17.6352 3.48451 17.7954 3.89721C17.9324 4.23192 18.0954 4.73492 18.1398 5.66121C18.1879 6.66287 18.1981 6.96337 18.1981 9.5C18.1981 12.0368 18.188 12.3371 18.1398 13.3389Z" fill="white"/>
<path d="M10.0003 4.62109C7.16428 4.62109 4.86523 6.80533 4.86523 9.49953C4.86523 12.1937 7.16428 14.3778 10.0003 14.3778C12.8364 14.3778 15.1355 12.1937 15.1355 9.49953C15.1355 6.80533 12.8364 4.62109 10.0003 4.62109ZM10.0003 12.6661C8.15945 12.666 6.66699 11.2483 6.66714 9.49938C6.66714 7.7506 8.15945 6.33276 10.0004 6.33276C11.8414 6.33291 13.3337 7.7506 13.3337 9.49938C13.3337 11.2483 11.8412 12.6661 10.0003 12.6661Z" fill="white"/>
<path d="M16.538 4.42916C16.538 5.05872 16.0007 5.56911 15.338 5.56911C14.6752 5.56911 14.1379 5.05872 14.1379 4.42916C14.1379 3.79946 14.6752 3.28906 15.338 3.28906C16.0007 3.28906 16.538 3.79946 16.538 4.42916Z" fill="white"/>
</svg>
