<svg width="26" height="26" viewBox="0 0 26 26" fill="none" xmlns="http://www.w3.org/2000/svg">
<path d="M16.6212 12.0559L11.191 6.39493C11.072 6.26979 10.9303 6.17046 10.7742 6.10268C10.6182 6.0349 10.4508 6 10.2817 6C10.1126 6 9.94525 6.0349 9.78919 6.10268C9.63312 6.17046 9.49148 6.26979 9.37242 6.39493C9.13389 6.64509 9 6.98348 9 7.3362C9 7.68893 9.13389 8.02732 9.37242 8.27747L13.9061 13.0039L9.37242 17.7302C9.13389 17.9804 9 18.3188 9 18.6715C9 19.0242 9.13389 19.3626 9.37242 19.6128C9.49209 19.7365 9.63401 19.8344 9.79005 19.9009C9.94608 19.9673 10.1132 20.001 10.2817 20C10.4503 20.001 10.6173 19.9673 10.7734 19.9009C10.9294 19.8344 11.0713 19.7365 11.191 19.6128L16.6212 13.9518C16.7412 13.8277 16.8365 13.68 16.9015 13.5173C16.9665 13.3546 17 13.1801 17 13.0039C17 12.8276 16.9665 12.6531 16.9015 12.4904C16.8365 12.3277 16.7412 12.18 16.6212 12.0559Z" fill="#2B2B2B"/>
</svg>
