<svg width="20" height="20" viewBox="0 0 20 20" fill="none" xmlns="http://www.w3.org/2000/svg">
<path d="M6.28993 9.25574L12.2498 3.54878C12.3477 3.45411 12.4642 3.37896 12.5925 3.32768C12.7208 3.2764 12.8584 3.25 12.9974 3.25C13.1365 3.25 13.2741 3.2764 13.4024 3.32768C13.5307 3.37896 13.6472 3.45411 13.7451 3.54878C13.9412 3.73803 14.0513 3.99404 14.0513 4.26089C14.0513 4.52774 13.9412 4.78374 13.7451 4.973L8.53279 10.0234L13.7451 15.0233C13.9412 15.2126 14.0513 15.4686 14.0513 15.7354C14.0513 16.0023 13.9412 16.2583 13.7451 16.4475C13.6475 16.543 13.5313 16.6189 13.4029 16.6709C13.2746 16.7229 13.1368 16.75 12.9974 16.7505C12.8581 16.75 12.7203 16.7229 12.592 16.6709C12.4636 16.6189 12.3474 16.543 12.2498 16.4475L6.28993 10.7406C6.18305 10.646 6.09775 10.5312 6.03941 10.4034C5.98106 10.2756 5.95094 10.1376 5.95094 9.99815C5.95094 9.85866 5.98106 9.72067 6.03941 9.5929C6.09775 9.46513 6.18305 9.35033 6.28993 9.25574Z" fill="white"/>
</svg>
