<svg width="6" height="10" viewBox="0 0 6 10" fill="none" xmlns="http://www.w3.org/2000/svg">
<path d="M5.71588 4.32565L1.64326 0.282094C1.55396 0.192708 1.44773 0.12176 1.33068 0.0733435C1.21363 0.024927 1.08809 0 0.961285 0C0.834485 0 0.708939 0.024927 0.59189 0.0733435C0.474841 0.12176 0.368606 0.192708 0.279313 0.282094C0.100415 0.460776 0 0.702485 0 0.954431C0 1.20638 0.100415 1.44809 0.279313 1.62677L3.67957 5.00276L0.279313 8.37875C0.100415 8.55743 0 8.79914 0 9.05108C0 9.30303 0.100415 9.54474 0.279313 9.72342C0.369065 9.81181 0.475506 9.88174 0.592534 9.92919C0.709562 9.97665 0.834874 10.0007 0.961285 9.99998C1.0877 10.0007 1.21301 9.97665 1.33004 9.92919C1.44706 9.88174 1.55351 9.81181 1.64326 9.72342L5.71588 5.67986C5.80591 5.59121 5.87736 5.48573 5.92613 5.36952C5.97489 5.2533 6 5.12865 6 5.00276C6 4.87686 5.97489 4.75221 5.92613 4.636C5.87736 4.51978 5.80591 4.41431 5.71588 4.32565Z" fill="#575756"/>
</svg>
