<svg width="26" height="26" viewBox="0 0 26 26" fill="none" xmlns="http://www.w3.org/2000/svg">
<path d="M9.37883 12.0559L14.809 6.39493C14.928 6.26979 15.0697 6.17046 15.2258 6.10268C15.3818 6.0349 15.5492 6 15.7183 6C15.8874 6 16.0547 6.0349 16.2108 6.10268C16.3669 6.17046 16.5085 6.26979 16.6276 6.39493C16.8661 6.64509 17 6.98348 17 7.3362C17 7.68893 16.8661 8.02732 16.6276 8.27747L12.0939 13.0039L16.6276 17.7302C16.8661 17.9804 17 18.3188 17 18.6715C17 19.0242 16.8661 19.3626 16.6276 19.6128C16.5079 19.7365 16.366 19.8344 16.21 19.9009C16.0539 19.9673 15.8868 20.001 15.7183 20C15.5497 20.001 15.3827 19.9673 15.2266 19.9009C15.0706 19.8344 14.9287 19.7365 14.809 19.6128L9.37883 13.9518C9.25879 13.8277 9.16351 13.68 9.09849 13.5173C9.03348 13.3546 9 13.1801 9 13.0039C9 12.8276 9.03348 12.6531 9.09849 12.4904C9.16351 12.3277 9.25879 12.18 9.37883 12.0559Z" fill="#2B2B2B"/>
</svg>
