<svg width="6" height="10" viewBox="0 0 6 10" fill="none" xmlns="http://www.w3.org/2000/svg">
<path d="M0.284122 4.32565L4.35674 0.282094C4.44604 0.192708 4.55227 0.12176 4.66932 0.0733435C4.78637 0.024927 4.91191 0 5.03871 0C5.16552 0 5.29106 0.024927 5.40811 0.0733435C5.52516 0.12176 5.63139 0.192708 5.72069 0.282094C5.89959 0.460776 6 0.702485 6 0.954431C6 1.20638 5.89959 1.44809 5.72069 1.62677L2.32043 5.00276L5.72069 8.37875C5.89959 8.55743 6 8.79914 6 9.05108C6 9.30303 5.89959 9.54474 5.72069 9.72342C5.63094 9.81181 5.52449 9.88174 5.40747 9.92919C5.29044 9.97665 5.16513 10.0007 5.03871 9.99998C4.9123 10.0007 4.78699 9.97665 4.66996 9.92919C4.55294 9.88174 4.44649 9.81181 4.35674 9.72342L0.284122 5.67986C0.194093 5.59121 0.122636 5.48573 0.0738711 5.36952C0.0251064 5.2533 0 5.12865 0 5.00276C0 4.87686 0.0251064 4.75221 0.0738711 4.636C0.122636 4.51978 0.194093 4.41431 0.284122 4.32565Z" fill="#575756"/>
</svg>
