<svg width="20" height="20" viewBox="0 0 20 20" fill="none" xmlns="http://www.w3.org/2000/svg">
<path d="M13.7123 9.25574L7.75237 3.54878C7.65448 3.45411 7.53802 3.37896 7.4097 3.32768C7.28139 3.2764 7.14375 3.25 7.00475 3.25C6.86574 3.25 6.72811 3.2764 6.59979 3.32768C6.47148 3.37896 6.35502 3.45411 6.25713 3.54878C6.06101 3.73803 5.95093 3.99404 5.95093 4.26089C5.95093 4.52774 6.06101 4.78374 6.25713 4.973L11.4694 10.0234L6.25713 15.0233C6.06101 15.2126 5.95093 15.4686 5.95093 15.7354C5.95093 16.0023 6.06101 16.2583 6.25713 16.4475C6.35465 16.543 6.47095 16.6189 6.59928 16.6709C6.72761 16.7229 6.86543 16.75 7.00475 16.7505C7.14407 16.75 7.28188 16.7229 7.41022 16.6709C7.53855 16.6189 7.65485 16.543 7.75237 16.4475L13.7123 10.7406C13.8191 10.646 13.9044 10.5312 13.9628 10.4034C14.0211 10.2756 14.0513 10.1376 14.0513 9.99815C14.0513 9.85866 14.0211 9.72067 13.9628 9.5929C13.9044 9.46513 13.8191 9.35033 13.7123 9.25574Z" fill="white"/>
</svg>
