<svg width="80" height="80" viewBox="0 0 80 80" fill="none" xmlns="http://www.w3.org/2000/svg">
<path d="M79.9996 40.0052C80.023 45.2612 79.0049 50.4698 77.0041 55.3307C75.0033 60.1915 72.0593 64.6083 68.342 68.3264C64.6247 72.0444 60.2075 74.9902 55.3454 76.9937C50.4833 78.9972 45.2724 80.0189 40.0132 79.9997C18.0786 80.0694 0.0214519 62.1089 0 40.1982C0 18.1053 17.9606 8.97586e-06 39.9381 8.97586e-06C45.1973 -0.00351155 50.4057 1.02862 55.2657 3.03743C60.1256 5.04624 64.542 7.99236 68.2623 11.7075C71.9827 15.4226 74.9341 19.8339 76.948 24.6893C78.962 29.5447 79.9989 34.7492 79.9996 40.0052ZM4.44593 39.3621C4.0008 58.7912 19.5641 75.1813 38.8601 75.5994C58.7032 76.0335 75.0871 60.785 75.5805 41.4256C76.1168 21.3372 60.7679 4.97922 41.0589 4.52365C21.0818 4.09486 4.90179 19.4666 4.44593 39.346V39.3621Z" fill="white"/>
<path d="M26.2732 40.0052C26.2732 34.474 26.2732 28.9427 26.2732 23.39C26.2732 19.8633 26.9811 19.4238 29.9469 21.1282C39.6968 26.7345 49.4359 32.3515 59.1644 37.9792C61.9853 39.5872 61.9692 40.493 59.0893 42.1599C49.3501 47.784 39.6056 53.3957 29.8557 58.9949C27.0563 60.6028 26.2893 60.1418 26.2786 56.8509C26.2679 51.2607 26.2786 45.6276 26.2732 40.0052Z" fill="white"/>
</svg>
