<svg width="22" height="22" viewBox="0 0 22 22" fill="none" xmlns="http://www.w3.org/2000/svg">
<g clip-path="url(#clip0_1984_13610)">
<path d="M21.1897 12.5098V9.47923L18.4752 8.65272C18.3374 8.20704 18.151 7.77758 17.9404 7.36432L19.2774 4.85235L17.1382 2.71312L14.6262 4.05014C14.2129 3.83946 13.7916 3.65308 13.3378 3.51533L12.5113 0.800781H9.4807L8.65418 3.51533C8.20851 3.65308 7.77904 3.83946 7.36578 4.05014L4.85381 2.71312L2.71458 4.85235L4.0516 7.36432C3.84092 7.77758 3.65455 8.19894 3.5168 8.65272L0.802246 9.47923V12.5098L3.5168 13.3363C3.65455 13.782 3.84092 14.2115 4.0516 14.6247L2.71458 17.1367L4.85381 19.2759L7.36578 17.9389C7.77904 18.1496 8.20041 18.336 8.65418 18.4737L9.4807 21.1883H12.5113L13.3378 18.4737C13.7835 18.336 14.2129 18.1496 14.6262 17.9389L17.1382 19.2759L19.2774 17.1367L17.9404 14.6247C18.151 14.2115 18.3374 13.7901 18.4752 13.3363L21.1897 12.5098Z" fill="white" stroke="#525252" stroke-linejoin="round"/>
<path d="M11.004 13.6633C12.4719 13.6633 13.6618 12.4734 13.6618 11.0055C13.6618 9.53761 12.4719 8.34766 11.004 8.34766C9.53614 8.34766 8.34619 9.53761 8.34619 11.0055C8.34619 12.4734 9.53614 13.6633 11.004 13.6633Z" fill="white" stroke="#525252" stroke-linejoin="round"/>
</g>
<defs>
<clipPath id="clip0_1984_13610">
<rect width="22" height="22" fill="white"/>
</clipPath>
</defs>
</svg>
