<svg width="8" height="10" viewBox="0 0 8 10" fill="none" xmlns="http://www.w3.org/2000/svg">
<path d="M0.933334 0C0.685798 0 0.448401 0.105357 0.273367 0.292893C0.0983332 0.48043 0 0.734784 0 1V9C0 9.26522 0.0983332 9.51957 0.273367 9.70711C0.448401 9.89464 0.685798 10 0.933334 10C1.18087 10 1.41827 9.89464 1.5933 9.70711C1.76833 9.51957 1.86667 9.26522 1.86667 9V1C1.86667 0.734784 1.76833 0.48043 1.5933 0.292893C1.41827 0.105357 1.18087 0 0.933334 0ZM7.06667 0C6.81913 0 6.58173 0.105357 6.4067 0.292893C6.23167 0.48043 6.13333 0.734784 6.13333 1V9C6.13333 9.26522 6.23167 9.51957 6.4067 9.70711C6.58173 9.89464 6.81913 10 7.06667 10C7.3142 10 7.5516 9.89464 7.72663 9.70711C7.90167 9.51957 8 9.26522 8 9V1C8 0.734784 7.90167 0.48043 7.72663 0.292893C7.5516 0.105357 7.3142 0 7.06667 0Z" fill="#575756"/>
</svg>
